<mxfile host="app.diagrams.net" modified="2022-05-18T14:55:45.641Z" agent="5.0 (Windows NT 10.0; Win64; x64) AppleWebKit/537.36 (KHTML, like Gecko) Chrome/101.0.4951.64 Safari/537.36 Edg/101.0.1210.47" etag="lfZVoSC0fcmfm4jWe6rq" version="18.0.7" type="github">
  <diagram id="R2lEEEUBdFMjLlhIrx00" name="Page-1">
    <mxGraphModel dx="2881" dy="2234" grid="1" gridSize="10" guides="1" tooltips="1" connect="1" arrows="1" fold="1" page="1" pageScale="1" pageWidth="850" pageHeight="1100" math="0" shadow="0" extFonts="Permanent Marker^https://fonts.googleapis.com/css?family=Permanent+Marker">
      <root>
        <mxCell id="0" />
        <mxCell id="1" parent="0" />
        <mxCell id="1bYZSqXl18TpeiRPyh3s-2" value="Sala" style="whiteSpace=wrap;html=1;align=center;" vertex="1" parent="1">
          <mxGeometry x="40" y="70" width="100" height="40" as="geometry" />
        </mxCell>
        <mxCell id="1bYZSqXl18TpeiRPyh3s-3" value="Filme" style="whiteSpace=wrap;html=1;align=center;" vertex="1" parent="1">
          <mxGeometry x="540" y="70" width="100" height="40" as="geometry" />
        </mxCell>
        <mxCell id="1bYZSqXl18TpeiRPyh3s-5" value="capacidade" style="ellipse;whiteSpace=wrap;html=1;align=center;" vertex="1" parent="1">
          <mxGeometry x="-110" y="90" width="100" height="40" as="geometry" />
        </mxCell>
        <mxCell id="1bYZSqXl18TpeiRPyh3s-6" value="nome" style="ellipse;whiteSpace=wrap;html=1;align=center;fontStyle=4;fillColor=#d5e8d4;strokeColor=#82b366;" vertex="1" parent="1">
          <mxGeometry x="-110" y="50" width="100" height="40" as="geometry" />
        </mxCell>
        <mxCell id="1bYZSqXl18TpeiRPyh3s-9" value="br_nome" style="ellipse;whiteSpace=wrap;html=1;align=center;fontStyle=4;fillColor=#d5e8d4;strokeColor=#82b366;" vertex="1" parent="1">
          <mxGeometry x="700" y="-50" width="100" height="40" as="geometry" />
        </mxCell>
        <mxCell id="1bYZSqXl18TpeiRPyh3s-10" value="nome original" style="ellipse;whiteSpace=wrap;html=1;align=center;" vertex="1" parent="1">
          <mxGeometry x="700" y="70" width="100" height="40" as="geometry" />
        </mxCell>
        <mxCell id="1bYZSqXl18TpeiRPyh3s-11" value="diretor" style="ellipse;whiteSpace=wrap;html=1;align=center;" vertex="1" parent="1">
          <mxGeometry x="700" y="30" width="100" height="40" as="geometry" />
        </mxCell>
        <mxCell id="1bYZSqXl18TpeiRPyh3s-12" value="ano" style="ellipse;whiteSpace=wrap;html=1;align=center;" vertex="1" parent="1">
          <mxGeometry x="700" y="-10" width="100" height="40" as="geometry" />
        </mxCell>
        <mxCell id="1bYZSqXl18TpeiRPyh3s-13" value="tipo" style="ellipse;whiteSpace=wrap;html=1;align=center;" vertex="1" parent="1">
          <mxGeometry x="700" y="150" width="100" height="40" as="geometry" />
        </mxCell>
        <mxCell id="1bYZSqXl18TpeiRPyh3s-14" value="sinopse" style="ellipse;whiteSpace=wrap;html=1;align=center;" vertex="1" parent="1">
          <mxGeometry x="700" y="110" width="100" height="40" as="geometry" />
        </mxCell>
        <mxCell id="1bYZSqXl18TpeiRPyh3s-21" value="Funcionário" style="whiteSpace=wrap;html=1;align=center;" vertex="1" parent="1">
          <mxGeometry x="30" y="400" width="100" height="40" as="geometry" />
        </mxCell>
        <mxCell id="1bYZSqXl18TpeiRPyh3s-22" value="carteira de trabalho" style="ellipse;whiteSpace=wrap;html=1;align=center;fontStyle=4;fillColor=#d5e8d4;strokeColor=#82b366;" vertex="1" parent="1">
          <mxGeometry x="-110" y="340" width="100" height="40" as="geometry" />
        </mxCell>
        <mxCell id="1bYZSqXl18TpeiRPyh3s-23" value="nome" style="ellipse;whiteSpace=wrap;html=1;align=center;" vertex="1" parent="1">
          <mxGeometry x="-110" y="380" width="100" height="40" as="geometry" />
        </mxCell>
        <mxCell id="1bYZSqXl18TpeiRPyh3s-24" value="dt_admissão" style="ellipse;whiteSpace=wrap;html=1;align=center;" vertex="1" parent="1">
          <mxGeometry x="-110" y="460" width="100" height="40" as="geometry" />
        </mxCell>
        <mxCell id="1bYZSqXl18TpeiRPyh3s-25" value="salário" style="ellipse;whiteSpace=wrap;html=1;align=center;" vertex="1" parent="1">
          <mxGeometry x="-110" y="420" width="100" height="40" as="geometry" />
        </mxCell>
        <mxCell id="1bYZSqXl18TpeiRPyh3s-30" value="Propagandas" style="whiteSpace=wrap;html=1;align=center;" vertex="1" parent="1">
          <mxGeometry x="780" y="360" width="100" height="40" as="geometry" />
        </mxCell>
        <mxCell id="1bYZSqXl18TpeiRPyh3s-31" value="id_propaganda" style="ellipse;whiteSpace=wrap;html=1;align=center;fontStyle=4;fillColor=#d5e8d4;strokeColor=#82b366;" vertex="1" parent="1">
          <mxGeometry x="950" y="310" width="100" height="40" as="geometry" />
        </mxCell>
        <mxCell id="1bYZSqXl18TpeiRPyh3s-32" value="nome" style="ellipse;whiteSpace=wrap;html=1;align=center;" vertex="1" parent="1">
          <mxGeometry x="950" y="350" width="100" height="40" as="geometry" />
        </mxCell>
        <mxCell id="1bYZSqXl18TpeiRPyh3s-33" value="agência" style="ellipse;whiteSpace=wrap;html=1;align=center;" vertex="1" parent="1">
          <mxGeometry x="950" y="390" width="100" height="40" as="geometry" />
        </mxCell>
        <mxCell id="1bYZSqXl18TpeiRPyh3s-34" value="faixa_etária" style="ellipse;whiteSpace=wrap;html=1;align=center;" vertex="1" parent="1">
          <mxGeometry x="950" y="430" width="100" height="40" as="geometry" />
        </mxCell>
        <mxCell id="1bYZSqXl18TpeiRPyh3s-51" value="" style="endArrow=none;html=1;rounded=0;entryX=0;entryY=0.25;entryDx=0;entryDy=0;exitX=1;exitY=0.5;exitDx=0;exitDy=0;" edge="1" parent="1" source="1bYZSqXl18TpeiRPyh3s-6" target="1bYZSqXl18TpeiRPyh3s-2">
          <mxGeometry width="50" height="50" relative="1" as="geometry">
            <mxPoint y="70" as="sourcePoint" />
            <mxPoint x="20" y="100" as="targetPoint" />
          </mxGeometry>
        </mxCell>
        <mxCell id="1bYZSqXl18TpeiRPyh3s-52" value="" style="endArrow=none;html=1;rounded=0;entryX=1;entryY=0.5;entryDx=0;entryDy=0;exitX=0;exitY=0.75;exitDx=0;exitDy=0;" edge="1" parent="1" source="1bYZSqXl18TpeiRPyh3s-2" target="1bYZSqXl18TpeiRPyh3s-5">
          <mxGeometry width="50" height="50" relative="1" as="geometry">
            <mxPoint x="30" y="190" as="sourcePoint" />
            <mxPoint x="10" y="150" as="targetPoint" />
          </mxGeometry>
        </mxCell>
        <mxCell id="1bYZSqXl18TpeiRPyh3s-57" value="Venda" style="whiteSpace=wrap;html=1;align=center;" vertex="1" parent="1">
          <mxGeometry x="400" y="280" width="100" height="40" as="geometry" />
        </mxCell>
        <mxCell id="1bYZSqXl18TpeiRPyh3s-63" value="" style="endArrow=none;html=1;rounded=0;entryX=0;entryY=0.5;entryDx=0;entryDy=0;exitX=1;exitY=0;exitDx=0;exitDy=0;" edge="1" parent="1" source="1bYZSqXl18TpeiRPyh3s-30" target="1bYZSqXl18TpeiRPyh3s-31">
          <mxGeometry width="50" height="50" relative="1" as="geometry">
            <mxPoint x="530" y="370" as="sourcePoint" />
            <mxPoint x="580" y="320" as="targetPoint" />
          </mxGeometry>
        </mxCell>
        <mxCell id="1bYZSqXl18TpeiRPyh3s-64" value="" style="endArrow=none;html=1;rounded=0;entryX=0;entryY=0.5;entryDx=0;entryDy=0;exitX=1;exitY=0.25;exitDx=0;exitDy=0;" edge="1" parent="1" source="1bYZSqXl18TpeiRPyh3s-30" target="1bYZSqXl18TpeiRPyh3s-32">
          <mxGeometry width="50" height="50" relative="1" as="geometry">
            <mxPoint x="530" y="370" as="sourcePoint" />
            <mxPoint x="580" y="320" as="targetPoint" />
          </mxGeometry>
        </mxCell>
        <mxCell id="1bYZSqXl18TpeiRPyh3s-65" value="" style="endArrow=none;html=1;rounded=0;entryX=0;entryY=0.5;entryDx=0;entryDy=0;exitX=1;exitY=0.75;exitDx=0;exitDy=0;" edge="1" parent="1" source="1bYZSqXl18TpeiRPyh3s-30" target="1bYZSqXl18TpeiRPyh3s-33">
          <mxGeometry width="50" height="50" relative="1" as="geometry">
            <mxPoint x="530" y="370" as="sourcePoint" />
            <mxPoint x="580" y="320" as="targetPoint" />
          </mxGeometry>
        </mxCell>
        <mxCell id="1bYZSqXl18TpeiRPyh3s-66" value="" style="endArrow=none;html=1;rounded=0;entryX=0;entryY=0.5;entryDx=0;entryDy=0;exitX=1;exitY=1;exitDx=0;exitDy=0;" edge="1" parent="1" source="1bYZSqXl18TpeiRPyh3s-30" target="1bYZSqXl18TpeiRPyh3s-34">
          <mxGeometry width="50" height="50" relative="1" as="geometry">
            <mxPoint x="530" y="370" as="sourcePoint" />
            <mxPoint x="580" y="320" as="targetPoint" />
          </mxGeometry>
        </mxCell>
        <mxCell id="1bYZSqXl18TpeiRPyh3s-67" value="" style="endArrow=none;html=1;rounded=0;exitX=1;exitY=0.5;exitDx=0;exitDy=0;entryX=0;entryY=0;entryDx=0;entryDy=0;" edge="1" parent="1" source="1bYZSqXl18TpeiRPyh3s-22" target="1bYZSqXl18TpeiRPyh3s-21">
          <mxGeometry width="50" height="50" relative="1" as="geometry">
            <mxPoint x="530" y="370" as="sourcePoint" />
            <mxPoint x="580" y="320" as="targetPoint" />
          </mxGeometry>
        </mxCell>
        <mxCell id="1bYZSqXl18TpeiRPyh3s-68" value="" style="endArrow=none;html=1;rounded=0;exitX=1;exitY=0.5;exitDx=0;exitDy=0;entryX=0;entryY=1;entryDx=0;entryDy=0;" edge="1" parent="1" source="1bYZSqXl18TpeiRPyh3s-24" target="1bYZSqXl18TpeiRPyh3s-21">
          <mxGeometry width="50" height="50" relative="1" as="geometry">
            <mxPoint x="530" y="370" as="sourcePoint" />
            <mxPoint x="580" y="320" as="targetPoint" />
          </mxGeometry>
        </mxCell>
        <mxCell id="1bYZSqXl18TpeiRPyh3s-69" value="" style="endArrow=none;html=1;rounded=0;exitX=1;exitY=0.5;exitDx=0;exitDy=0;entryX=0;entryY=0.25;entryDx=0;entryDy=0;" edge="1" parent="1" source="1bYZSqXl18TpeiRPyh3s-23" target="1bYZSqXl18TpeiRPyh3s-21">
          <mxGeometry width="50" height="50" relative="1" as="geometry">
            <mxPoint x="530" y="370" as="sourcePoint" />
            <mxPoint x="580" y="320" as="targetPoint" />
          </mxGeometry>
        </mxCell>
        <mxCell id="1bYZSqXl18TpeiRPyh3s-70" value="" style="endArrow=none;html=1;rounded=0;exitX=1;exitY=0.5;exitDx=0;exitDy=0;entryX=0;entryY=0.75;entryDx=0;entryDy=0;" edge="1" parent="1" source="1bYZSqXl18TpeiRPyh3s-25" target="1bYZSqXl18TpeiRPyh3s-21">
          <mxGeometry width="50" height="50" relative="1" as="geometry">
            <mxPoint x="530" y="370" as="sourcePoint" />
            <mxPoint x="580" y="320" as="targetPoint" />
          </mxGeometry>
        </mxCell>
        <mxCell id="1bYZSqXl18TpeiRPyh3s-71" value="" style="endArrow=none;html=1;rounded=0;entryX=0;entryY=0.5;entryDx=0;entryDy=0;exitX=0.75;exitY=0;exitDx=0;exitDy=0;" edge="1" parent="1" source="1bYZSqXl18TpeiRPyh3s-3" target="1bYZSqXl18TpeiRPyh3s-9">
          <mxGeometry width="50" height="50" relative="1" as="geometry">
            <mxPoint x="290" y="330" as="sourcePoint" />
            <mxPoint x="340" y="280" as="targetPoint" />
          </mxGeometry>
        </mxCell>
        <mxCell id="1bYZSqXl18TpeiRPyh3s-72" value="" style="endArrow=none;html=1;rounded=0;entryX=0;entryY=0.5;entryDx=0;entryDy=0;exitX=0.75;exitY=1;exitDx=0;exitDy=0;" edge="1" parent="1" source="1bYZSqXl18TpeiRPyh3s-3" target="1bYZSqXl18TpeiRPyh3s-13">
          <mxGeometry width="50" height="50" relative="1" as="geometry">
            <mxPoint x="290" y="330" as="sourcePoint" />
            <mxPoint x="340" y="280" as="targetPoint" />
          </mxGeometry>
        </mxCell>
        <mxCell id="1bYZSqXl18TpeiRPyh3s-73" value="" style="endArrow=none;html=1;rounded=0;entryX=0;entryY=0.5;entryDx=0;entryDy=0;exitX=1;exitY=0;exitDx=0;exitDy=0;" edge="1" parent="1" source="1bYZSqXl18TpeiRPyh3s-3" target="1bYZSqXl18TpeiRPyh3s-12">
          <mxGeometry width="50" height="50" relative="1" as="geometry">
            <mxPoint x="290" y="330" as="sourcePoint" />
            <mxPoint x="340" y="280" as="targetPoint" />
          </mxGeometry>
        </mxCell>
        <mxCell id="1bYZSqXl18TpeiRPyh3s-74" value="" style="endArrow=none;html=1;rounded=0;entryX=0;entryY=0.5;entryDx=0;entryDy=0;exitX=1;exitY=1;exitDx=0;exitDy=0;" edge="1" parent="1" source="1bYZSqXl18TpeiRPyh3s-3" target="1bYZSqXl18TpeiRPyh3s-14">
          <mxGeometry width="50" height="50" relative="1" as="geometry">
            <mxPoint x="290" y="330" as="sourcePoint" />
            <mxPoint x="340" y="280" as="targetPoint" />
          </mxGeometry>
        </mxCell>
        <mxCell id="1bYZSqXl18TpeiRPyh3s-75" value="" style="endArrow=none;html=1;rounded=0;entryX=0;entryY=0.5;entryDx=0;entryDy=0;exitX=1;exitY=0.25;exitDx=0;exitDy=0;" edge="1" parent="1" source="1bYZSqXl18TpeiRPyh3s-3" target="1bYZSqXl18TpeiRPyh3s-11">
          <mxGeometry width="50" height="50" relative="1" as="geometry">
            <mxPoint x="290" y="330" as="sourcePoint" />
            <mxPoint x="340" y="280" as="targetPoint" />
          </mxGeometry>
        </mxCell>
        <mxCell id="1bYZSqXl18TpeiRPyh3s-76" value="" style="endArrow=none;html=1;rounded=0;entryX=0;entryY=0.5;entryDx=0;entryDy=0;exitX=1;exitY=0.75;exitDx=0;exitDy=0;" edge="1" parent="1" source="1bYZSqXl18TpeiRPyh3s-3" target="1bYZSqXl18TpeiRPyh3s-10">
          <mxGeometry width="50" height="50" relative="1" as="geometry">
            <mxPoint x="290" y="330" as="sourcePoint" />
            <mxPoint x="340" y="280" as="targetPoint" />
          </mxGeometry>
        </mxCell>
        <mxCell id="1bYZSqXl18TpeiRPyh3s-77" value="id_venda" style="ellipse;whiteSpace=wrap;html=1;align=center;fontStyle=4;fillColor=#d5e8d4;strokeColor=#82b366;" vertex="1" parent="1">
          <mxGeometry x="300" y="210" width="100" height="40" as="geometry" />
        </mxCell>
        <mxCell id="1bYZSqXl18TpeiRPyh3s-78" value="data" style="ellipse;whiteSpace=wrap;html=1;align=center;" vertex="1" parent="1">
          <mxGeometry x="530" y="240" width="100" height="40" as="geometry" />
        </mxCell>
        <mxCell id="1bYZSqXl18TpeiRPyh3s-80" value="forma_pagamento" style="ellipse;whiteSpace=wrap;html=1;align=center;" vertex="1" parent="1">
          <mxGeometry x="530" y="280" width="100" height="40" as="geometry" />
        </mxCell>
        <mxCell id="1bYZSqXl18TpeiRPyh3s-81" value="valor_total" style="ellipse;whiteSpace=wrap;html=1;align=center;" vertex="1" parent="1">
          <mxGeometry x="530" y="320" width="100" height="40" as="geometry" />
        </mxCell>
        <mxCell id="1bYZSqXl18TpeiRPyh3s-82" value="" style="endArrow=none;html=1;rounded=0;entryX=0;entryY=0.5;entryDx=0;entryDy=0;exitX=1;exitY=0;exitDx=0;exitDy=0;" edge="1" parent="1" source="1bYZSqXl18TpeiRPyh3s-57" target="1bYZSqXl18TpeiRPyh3s-78">
          <mxGeometry width="50" height="50" relative="1" as="geometry">
            <mxPoint x="530" y="370" as="sourcePoint" />
            <mxPoint x="580" y="320" as="targetPoint" />
          </mxGeometry>
        </mxCell>
        <mxCell id="1bYZSqXl18TpeiRPyh3s-83" value="" style="endArrow=none;html=1;rounded=0;entryX=0;entryY=0.5;entryDx=0;entryDy=0;exitX=1;exitY=0.5;exitDx=0;exitDy=0;" edge="1" parent="1" source="1bYZSqXl18TpeiRPyh3s-57" target="1bYZSqXl18TpeiRPyh3s-80">
          <mxGeometry width="50" height="50" relative="1" as="geometry">
            <mxPoint x="530" y="370" as="sourcePoint" />
            <mxPoint x="580" y="320" as="targetPoint" />
          </mxGeometry>
        </mxCell>
        <mxCell id="1bYZSqXl18TpeiRPyh3s-84" value="" style="endArrow=none;html=1;rounded=0;entryX=0;entryY=0.5;entryDx=0;entryDy=0;exitX=1;exitY=1;exitDx=0;exitDy=0;" edge="1" parent="1" source="1bYZSqXl18TpeiRPyh3s-57" target="1bYZSqXl18TpeiRPyh3s-81">
          <mxGeometry width="50" height="50" relative="1" as="geometry">
            <mxPoint x="530" y="370" as="sourcePoint" />
            <mxPoint x="580" y="320" as="targetPoint" />
          </mxGeometry>
        </mxCell>
        <mxCell id="1bYZSqXl18TpeiRPyh3s-86" value="" style="endArrow=none;html=1;rounded=0;entryX=0.5;entryY=1;entryDx=0;entryDy=0;exitX=0;exitY=0;exitDx=0;exitDy=0;" edge="1" parent="1" source="1bYZSqXl18TpeiRPyh3s-57" target="1bYZSqXl18TpeiRPyh3s-77">
          <mxGeometry width="50" height="50" relative="1" as="geometry">
            <mxPoint x="530" y="370" as="sourcePoint" />
            <mxPoint x="580" y="320" as="targetPoint" />
          </mxGeometry>
        </mxCell>
        <mxCell id="1bYZSqXl18TpeiRPyh3s-87" value="Contém" style="shape=rhombus;perimeter=rhombusPerimeter;whiteSpace=wrap;html=1;align=center;" vertex="1" parent="1">
          <mxGeometry x="530" y="-30" width="120" height="60" as="geometry" />
        </mxCell>
        <mxCell id="1bYZSqXl18TpeiRPyh3s-88" value="Premiações" style="whiteSpace=wrap;html=1;align=center;" vertex="1" parent="1">
          <mxGeometry x="540" y="-110" width="100" height="40" as="geometry" />
        </mxCell>
        <mxCell id="1bYZSqXl18TpeiRPyh3s-89" value="" style="endArrow=none;html=1;rounded=0;entryX=0.5;entryY=1;entryDx=0;entryDy=0;exitX=0.5;exitY=0;exitDx=0;exitDy=0;" edge="1" parent="1" source="1bYZSqXl18TpeiRPyh3s-3" target="1bYZSqXl18TpeiRPyh3s-87">
          <mxGeometry width="50" height="50" relative="1" as="geometry">
            <mxPoint x="390" y="140" as="sourcePoint" />
            <mxPoint x="440" y="90" as="targetPoint" />
          </mxGeometry>
        </mxCell>
        <mxCell id="1bYZSqXl18TpeiRPyh3s-90" value="" style="endArrow=none;html=1;rounded=0;entryX=0.5;entryY=1;entryDx=0;entryDy=0;exitX=0.5;exitY=0;exitDx=0;exitDy=0;" edge="1" parent="1" source="1bYZSqXl18TpeiRPyh3s-87" target="1bYZSqXl18TpeiRPyh3s-88">
          <mxGeometry width="50" height="50" relative="1" as="geometry">
            <mxPoint x="390" y="140" as="sourcePoint" />
            <mxPoint x="440" y="90" as="targetPoint" />
          </mxGeometry>
        </mxCell>
        <mxCell id="1bYZSqXl18TpeiRPyh3s-91" value="nome" style="ellipse;whiteSpace=wrap;html=1;align=center;" vertex="1" parent="1">
          <mxGeometry x="660" y="-180" width="100" height="40" as="geometry" />
        </mxCell>
        <mxCell id="1bYZSqXl18TpeiRPyh3s-92" value="ano" style="ellipse;whiteSpace=wrap;html=1;align=center;" vertex="1" parent="1">
          <mxGeometry x="660" y="-140" width="100" height="40" as="geometry" />
        </mxCell>
        <mxCell id="1bYZSqXl18TpeiRPyh3s-93" value="" style="endArrow=none;html=1;rounded=0;entryX=0;entryY=0.5;entryDx=0;entryDy=0;exitX=0.75;exitY=0;exitDx=0;exitDy=0;" edge="1" parent="1" source="1bYZSqXl18TpeiRPyh3s-88" target="1bYZSqXl18TpeiRPyh3s-91">
          <mxGeometry width="50" height="50" relative="1" as="geometry">
            <mxPoint x="690" y="110" as="sourcePoint" />
            <mxPoint x="740" y="60" as="targetPoint" />
          </mxGeometry>
        </mxCell>
        <mxCell id="1bYZSqXl18TpeiRPyh3s-94" value="" style="endArrow=none;html=1;rounded=0;entryX=0;entryY=0.5;entryDx=0;entryDy=0;exitX=1;exitY=0;exitDx=0;exitDy=0;" edge="1" parent="1" source="1bYZSqXl18TpeiRPyh3s-88" target="1bYZSqXl18TpeiRPyh3s-92">
          <mxGeometry width="50" height="50" relative="1" as="geometry">
            <mxPoint x="690" y="110" as="sourcePoint" />
            <mxPoint x="740" y="60" as="targetPoint" />
          </mxGeometry>
        </mxCell>
        <mxCell id="1bYZSqXl18TpeiRPyh3s-95" value="Cliente" style="whiteSpace=wrap;html=1;align=center;" vertex="1" parent="1">
          <mxGeometry x="400" y="510" width="100" height="40" as="geometry" />
        </mxCell>
        <mxCell id="1bYZSqXl18TpeiRPyh3s-96" value="id_cliente" style="ellipse;whiteSpace=wrap;html=1;align=center;fontStyle=4;fillColor=#d5e8d4;strokeColor=#82b366;" vertex="1" parent="1">
          <mxGeometry x="530" y="450" width="100" height="40" as="geometry" />
        </mxCell>
        <mxCell id="1bYZSqXl18TpeiRPyh3s-98" value="nome" style="ellipse;whiteSpace=wrap;html=1;align=center;" vertex="1" parent="1">
          <mxGeometry x="530" y="490" width="100" height="40" as="geometry" />
        </mxCell>
        <mxCell id="1bYZSqXl18TpeiRPyh3s-101" value="cpf" style="ellipse;whiteSpace=wrap;html=1;align=center;" vertex="1" parent="1">
          <mxGeometry x="530" y="530" width="100" height="40" as="geometry" />
        </mxCell>
        <mxCell id="1bYZSqXl18TpeiRPyh3s-102" value="email" style="ellipse;whiteSpace=wrap;html=1;align=center;" vertex="1" parent="1">
          <mxGeometry x="530" y="570" width="100" height="40" as="geometry" />
        </mxCell>
        <mxCell id="1bYZSqXl18TpeiRPyh3s-103" value="" style="endArrow=none;html=1;rounded=0;entryX=0;entryY=0.5;entryDx=0;entryDy=0;exitX=1;exitY=0;exitDx=0;exitDy=0;" edge="1" parent="1" source="1bYZSqXl18TpeiRPyh3s-95" target="1bYZSqXl18TpeiRPyh3s-96">
          <mxGeometry width="50" height="50" relative="1" as="geometry">
            <mxPoint x="500" y="480" as="sourcePoint" />
            <mxPoint x="550" y="430" as="targetPoint" />
          </mxGeometry>
        </mxCell>
        <mxCell id="1bYZSqXl18TpeiRPyh3s-104" value="" style="endArrow=none;html=1;rounded=0;entryX=0;entryY=0.5;entryDx=0;entryDy=0;exitX=1;exitY=1;exitDx=0;exitDy=0;" edge="1" parent="1" source="1bYZSqXl18TpeiRPyh3s-95" target="1bYZSqXl18TpeiRPyh3s-102">
          <mxGeometry width="50" height="50" relative="1" as="geometry">
            <mxPoint x="500" y="480" as="sourcePoint" />
            <mxPoint x="550" y="430" as="targetPoint" />
          </mxGeometry>
        </mxCell>
        <mxCell id="1bYZSqXl18TpeiRPyh3s-105" value="" style="endArrow=none;html=1;rounded=0;entryX=0;entryY=0.5;entryDx=0;entryDy=0;exitX=1;exitY=0.25;exitDx=0;exitDy=0;" edge="1" parent="1" source="1bYZSqXl18TpeiRPyh3s-95" target="1bYZSqXl18TpeiRPyh3s-98">
          <mxGeometry width="50" height="50" relative="1" as="geometry">
            <mxPoint x="500" y="480" as="sourcePoint" />
            <mxPoint x="550" y="430" as="targetPoint" />
          </mxGeometry>
        </mxCell>
        <mxCell id="1bYZSqXl18TpeiRPyh3s-106" value="" style="endArrow=none;html=1;rounded=0;entryX=0;entryY=0.5;entryDx=0;entryDy=0;" edge="1" parent="1" source="1bYZSqXl18TpeiRPyh3s-95" target="1bYZSqXl18TpeiRPyh3s-101">
          <mxGeometry width="50" height="50" relative="1" as="geometry">
            <mxPoint x="500" y="480" as="sourcePoint" />
            <mxPoint x="550" y="430" as="targetPoint" />
          </mxGeometry>
        </mxCell>
        <mxCell id="1bYZSqXl18TpeiRPyh3s-107" value="Exibe" style="shape=rhombus;perimeter=rhombusPerimeter;whiteSpace=wrap;html=1;align=center;" vertex="1" parent="1">
          <mxGeometry x="270" y="60" width="120" height="60" as="geometry" />
        </mxCell>
        <mxCell id="1bYZSqXl18TpeiRPyh3s-108" value="" style="endArrow=none;html=1;rounded=0;exitX=1;exitY=0.5;exitDx=0;exitDy=0;entryX=0;entryY=0.5;entryDx=0;entryDy=0;" edge="1" parent="1" source="1bYZSqXl18TpeiRPyh3s-2" target="1bYZSqXl18TpeiRPyh3s-107">
          <mxGeometry width="50" height="50" relative="1" as="geometry">
            <mxPoint x="490" y="270" as="sourcePoint" />
            <mxPoint x="540" y="220" as="targetPoint" />
          </mxGeometry>
        </mxCell>
        <mxCell id="1bYZSqXl18TpeiRPyh3s-109" value="" style="endArrow=none;html=1;rounded=0;entryX=0;entryY=0.5;entryDx=0;entryDy=0;exitX=1;exitY=0.5;exitDx=0;exitDy=0;" edge="1" parent="1" source="1bYZSqXl18TpeiRPyh3s-107" target="1bYZSqXl18TpeiRPyh3s-3">
          <mxGeometry width="50" height="50" relative="1" as="geometry">
            <mxPoint x="490" y="270" as="sourcePoint" />
            <mxPoint x="540" y="220" as="targetPoint" />
          </mxGeometry>
        </mxCell>
        <mxCell id="1bYZSqXl18TpeiRPyh3s-110" value="Solicita" style="shape=rhombus;perimeter=rhombusPerimeter;whiteSpace=wrap;html=1;align=center;" vertex="1" parent="1">
          <mxGeometry x="390" y="390" width="120" height="60" as="geometry" />
        </mxCell>
        <mxCell id="1bYZSqXl18TpeiRPyh3s-111" value="" style="endArrow=none;html=1;rounded=0;exitX=0.5;exitY=0;exitDx=0;exitDy=0;entryX=0.5;entryY=1;entryDx=0;entryDy=0;" edge="1" parent="1" source="1bYZSqXl18TpeiRPyh3s-95" target="1bYZSqXl18TpeiRPyh3s-110">
          <mxGeometry width="50" height="50" relative="1" as="geometry">
            <mxPoint x="490" y="390" as="sourcePoint" />
            <mxPoint x="540" y="340" as="targetPoint" />
          </mxGeometry>
        </mxCell>
        <mxCell id="1bYZSqXl18TpeiRPyh3s-112" value="" style="endArrow=none;html=1;rounded=0;exitX=0.5;exitY=0;exitDx=0;exitDy=0;entryX=0.5;entryY=1;entryDx=0;entryDy=0;" edge="1" parent="1" source="1bYZSqXl18TpeiRPyh3s-110" target="1bYZSqXl18TpeiRPyh3s-57">
          <mxGeometry width="50" height="50" relative="1" as="geometry">
            <mxPoint x="490" y="390" as="sourcePoint" />
            <mxPoint x="540" y="340" as="targetPoint" />
          </mxGeometry>
        </mxCell>
        <mxCell id="1bYZSqXl18TpeiRPyh3s-113" value="" style="endArrow=none;html=1;rounded=0;entryX=0;entryY=1;entryDx=0;entryDy=0;exitX=1;exitY=0;exitDx=0;exitDy=0;" edge="1" parent="1" source="1bYZSqXl18TpeiRPyh3s-114" target="1bYZSqXl18TpeiRPyh3s-57">
          <mxGeometry width="50" height="50" relative="1" as="geometry">
            <mxPoint x="310" y="360" as="sourcePoint" />
            <mxPoint x="540" y="340" as="targetPoint" />
          </mxGeometry>
        </mxCell>
        <mxCell id="1bYZSqXl18TpeiRPyh3s-114" value="Realiza" style="shape=rhombus;perimeter=rhombusPerimeter;whiteSpace=wrap;html=1;align=center;" vertex="1" parent="1">
          <mxGeometry x="210" y="350" width="120" height="60" as="geometry" />
        </mxCell>
        <mxCell id="1bYZSqXl18TpeiRPyh3s-115" value="" style="endArrow=none;html=1;rounded=0;exitX=1;exitY=1;exitDx=0;exitDy=0;entryX=0;entryY=1;entryDx=0;entryDy=0;" edge="1" parent="1" source="1bYZSqXl18TpeiRPyh3s-21" target="1bYZSqXl18TpeiRPyh3s-114">
          <mxGeometry width="50" height="50" relative="1" as="geometry">
            <mxPoint x="490" y="390" as="sourcePoint" />
            <mxPoint x="540" y="340" as="targetPoint" />
          </mxGeometry>
        </mxCell>
      </root>
    </mxGraphModel>
  </diagram>
</mxfile>
